<?xml version="1.0" encoding="UTF-8"?>
<svg width="30px" height="29px" viewBox="0 0 30 29" version="1.1" xmlns="http://www.w3.org/2000/svg" xmlns:xlink="http://www.w3.org/1999/xlink">
    <!-- Generator: Sketch 40.2 (33826) - http://www.bohemiancoding.com/sketch -->
    <title>icon</title>
    <desc>Created with Sketch.</desc>
    <defs></defs>
    <g id="Page-1" stroke="none" stroke-width="1" fill="none" fill-rule="evenodd">
        <g id="icon" fill="#247BA0">
            <path d="M0.92961039,7.58454545 L1.85922078,7.58454545 L1.85922078,13.1606494 L0.92961039,13.1606494 C0.415714286,13.1606494 0,12.7468831 0,12.2314286 L0,8.51376623 C0,8.0025974 0.415714286,7.58454545 0.92961039,7.58454545 L0.92961039,7.58454545 Z M28.8109091,7.58454545 L27.8805195,7.58454545 L27.8805195,13.1606494 L28.8109091,13.1606494 C29.324026,13.1606494 29.7405195,12.7468831 29.7405195,12.2314286 L29.7405195,8.51376623 C29.7405195,8.0025974 29.3251948,7.58454545 28.8109091,7.58454545 L28.8109091,7.58454545 Z M26.0228571,5.72649351 L26.0228571,22.4551948 C26.0228571,23.482987 25.1918182,24.314026 24.164026,24.314026 L24.164026,26.1728571 C24.164026,27.201039 23.332987,28.0316883 22.3051948,28.0316883 L20.445974,28.0316883 C19.4185714,28.0316883 18.5871429,27.1990909 18.5871429,26.1728571 L18.5871429,24.314026 L11.152987,24.314026 L11.152987,26.1728571 C11.152987,27.201039 10.3215584,28.0316883 9.29415584,28.0316883 L7.4361039,28.0316883 C6.40831169,28.0316883 5.57727273,27.1990909 5.57727273,26.1728571 L5.57727273,24.314026 C4.54987013,24.314026 3.71844156,23.4814286 3.71844156,22.4551948 L3.71844156,5.72649351 C3.71766234,2.64779221 6.21584416,0.15038961 9.29415584,0.15038961 L20.4467532,0.15038961 C23.5254545,0.15038961 26.0228571,2.64701299 26.0228571,5.72649351 L26.0228571,5.72649351 Z M11.152987,3.86805195 L18.5879221,3.86805195 L18.5879221,2.00922078 L11.152987,2.00922078 L11.152987,3.86805195 L11.152987,3.86805195 Z M9.29415584,20.5971429 C9.29415584,19.5681818 8.46272727,18.7383117 7.4361039,18.7383117 C6.4087013,18.7383117 5.57727273,19.5693506 5.57727273,20.5971429 C5.57727273,21.6237662 6.4087013,22.455974 7.4361039,22.455974 C8.46233766,22.4555844 9.29415584,21.622987 9.29415584,20.5971429 L9.29415584,20.5971429 Z M24.164026,20.5971429 C24.164026,19.5681818 23.332987,18.7383117 22.3051948,18.7383117 C21.2774026,18.7383117 20.4463636,19.5693506 20.4463636,20.5971429 C20.4463636,21.6237662 21.2785714,22.455974 22.3051948,22.455974 C23.3333766,22.4555844 24.164026,21.622987 24.164026,20.5971429 L24.164026,20.5971429 Z M24.164026,5.72649351 L5.57649351,5.72649351 L5.57649351,16.8790909 L24.164026,16.8790909 L24.164026,5.72649351 L24.164026,5.72649351 L24.164026,5.72649351 Z" id="Shape"></path>
        </g>
    </g>
</svg>