<?xml version="1.0" encoding="UTF-8"?>
<svg width="34px" height="43px" viewBox="0 0 34 43" version="1.1" xmlns="http://www.w3.org/2000/svg" xmlns:xlink="http://www.w3.org/1999/xlink">
    <!-- Generator: Sketch 40.2 (33826) - http://www.bohemiancoding.com/sketch -->
    <title>Group</title>
    <desc>Created with Sketch.</desc>
    <defs>
        <path d="M14.8553664,27.2283019 C7.7774368,27.2283019 2.03996833,21.4908334 2.03996833,14.413272 C2.03996833,7.33552652 7.7774368,1.59805805 14.8553664,1.59805805 C21.9332961,1.59805805 27.6707646,7.33552652 27.6707646,14.413272 C27.6707646,21.4908334 21.9332961,27.2283019 14.8553664,27.2283019 L14.8553664,27.2283019 Z M0,14.9997238 C0,15.6263158 0.0384830202,16.2429647 0.117658612,16.8487501 C1.45977696,27.1321864 14.9989873,38.6710162 14.9989873,38.6710162 C14.9989873,38.6710162 28.591411,27.2550006 29.8637443,16.9975265 C29.9502851,16.3434993 30,15.6775037 30,14.9997238 C30,6.71556322 23.284805,0 14.9989873,0 C6.71574735,0 0,6.71556322 0,14.9997238 Z" id="path-1"></path>
        <filter x="-50%" y="-50%" width="200%" height="200%" filterUnits="objectBoundingBox" id="filter-2">
            <feOffset dx="0" dy="2" in="SourceAlpha" result="shadowOffsetOuter1"></feOffset>
            <feGaussianBlur stdDeviation="1" in="shadowOffsetOuter1" result="shadowBlurOuter1"></feGaussianBlur>
            <feColorMatrix values="0 0 0 0 0   0 0 0 0 0   0 0 0 0 0  0 0 0 0.201822917 0" type="matrix" in="shadowBlurOuter1"></feColorMatrix>
        </filter>
    </defs>
    <g id="Page-1" stroke="none" stroke-width="1" fill="none" fill-rule="evenodd">
        <g id="Group" transform="translate(2.000000, 0.000000)">
            <circle id="Oval" fill="#FFFFFF" cx="15" cy="15" r="15"></circle>
            <path d="M5.83607567,10.6868859 L6.42215133,10.6868859 L6.42215133,14.2023574 L5.83607567,14.2023574 C5.51208832,14.2023574 5.25,13.9414972 5.25,13.6165274 L5.25,11.272716 C5.25,10.950448 5.51208832,10.6868859 5.83607567,10.6868859 L5.83607567,10.6868859 Z M23.4139243,10.6868859 L22.8273574,10.6868859 L22.8273574,14.2023574 L23.4139243,14.2023574 C23.7374204,14.2023574 24,13.9414972 24,13.6165274 L24,11.272716 C24,10.950448 23.7381573,10.6868859 23.4139243,10.6868859 L23.4139243,10.6868859 Z M21.6561886,9.51547148 L21.6561886,20.0621316 C21.6561886,20.7101062 21.1322576,21.2340373 20.4842829,21.2340373 L20.4842829,22.405943 C20.4842829,23.0541633 19.9603519,23.5778487 19.3123772,23.5778487 L18.1402258,23.5778487 C17.4924968,23.5778487 16.9683201,23.0529351 16.9683201,22.405943 L16.9683201,21.2340373 L12.2814342,21.2340373 L12.2814342,22.405943 C12.2814342,23.0541633 11.7572576,23.5778487 11.1095285,23.5778487 L9.93811408,23.5778487 C9.29013939,23.5778487 8.76620837,23.0529351 8.76620837,22.405943 L8.76620837,21.2340373 C8.11847931,21.2340373 7.59430267,20.7091237 7.59430267,20.0621316 L7.59430267,9.51547148 C7.59381141,7.57449498 9.16879765,6 11.1095285,6 L18.1407171,6 C20.0816936,6 21.6561886,7.57400372 21.6561886,9.51547148 L21.6561886,9.51547148 Z M12.2814342,8.34381141 L16.9688114,8.34381141 L16.9688114,7.1719057 L12.2814342,7.1719057 L12.2814342,8.34381141 L12.2814342,8.34381141 Z M11.1095285,18.8907171 C11.1095285,18.2420055 10.5853519,17.7188114 9.93811408,17.7188114 C9.29038502,17.7188114 8.76620837,18.2427424 8.76620837,18.8907171 C8.76620837,19.5379549 9.29038502,20.0626228 9.93811408,20.0626228 C10.5851062,20.0623772 11.1095285,19.5374636 11.1095285,18.8907171 L11.1095285,18.8907171 Z M20.4842829,18.8907171 C20.4842829,18.2420055 19.9603519,17.7188114 19.3123772,17.7188114 C18.6644025,17.7188114 18.1404715,18.2427424 18.1404715,18.8907171 C18.1404715,19.5379549 18.6651394,20.0626228 19.3123772,20.0626228 C19.9605975,20.0623772 20.4842829,19.5374636 20.4842829,18.8907171 L20.4842829,18.8907171 Z M20.4842829,9.51547148 L8.76571711,9.51547148 L8.76571711,16.5466601 L20.4842829,16.5466601 L20.4842829,9.51547148 L20.4842829,9.51547148 L20.4842829,9.51547148 Z" id="Shape" fill="#247BA0"></path>
            <g id="Combined-Shape">
                <use fill="black" fill-opacity="1" filter="url(#filter-2)" xlink:href="#path-1"></use>
                <use fill="#247BA0" fill-rule="evenodd" xlink:href="#path-1"></use>
            </g>
        </g>
    </g>
</svg>