<?xml version="1.0" encoding="UTF-8"?>
<svg width="24px" height="23px" viewBox="0 0 24 23" version="1.1" xmlns="http://www.w3.org/2000/svg" xmlns:xlink="http://www.w3.org/1999/xlink">
    <!-- Generator: Sketch 40.2 (33826) - http://www.bohemiancoding.com/sketch -->
    <title>Capa_1</title>
    <desc>Created with Sketch.</desc>
    <defs></defs>
    <g id="Page-1" stroke="none" stroke-width="1" fill="none" fill-rule="evenodd">
        <g id="icon" fill="#FFFFFF">
            <g id="Capa_1">
                <path d="M0.750176854,6.38521398 L1.50035371,6.38521398 L1.50035371,10.8850175 L0.750176854,10.8850175 C0.335473053,10.8850175 0,10.5511165 0,10.135155 L0,7.13507643 C0,6.72257348 0.335473053,6.38521398 0.750176854,6.38521398 L0.750176854,6.38521398 Z M23.2498231,6.38521398 L22.4990175,6.38521398 L22.4990175,10.8850175 L23.2498231,10.8850175 C23.6638981,10.8850175 24,10.5511165 24,10.135155 L24,7.13507643 C24,6.72257348 23.6648414,6.38521398 23.2498231,6.38521398 L23.2498231,6.38521398 Z M20.9999214,4.8858035 L20.9999214,18.3855284 C20.9999214,19.214936 20.3292897,19.8855677 19.4998821,19.8855677 L19.4998821,21.385607 C19.4998821,22.215329 18.8292504,22.8856463 17.9998428,22.8856463 L16.4994891,22.8856463 C15.6703959,22.8856463 14.9994498,22.213757 14.9994498,21.385607 L14.9994498,19.8855677 L9.00023581,19.8855677 L9.00023581,21.385607 C9.00023581,22.215329 8.3292897,22.8856463 7.5001965,22.8856463 L6.00078602,22.8856463 C5.17137842,22.8856463 4.50074672,22.213757 4.50074672,21.385607 L4.50074672,19.8855677 C3.67165352,19.8855677 3.00070742,19.2136784 3.00070742,18.3855284 L3.00070742,4.8858035 C3.0000786,2.40135358 5.016061,0.386 7.5001965,0.386 L16.5001179,0.386 C18.9845678,0.386 20.9999214,2.40072476 20.9999214,4.8858035 L20.9999214,4.8858035 Z M9.00023581,3.3860786 L15.0000786,3.3860786 L15.0000786,1.8860393 L9.00023581,1.8860393 L9.00023581,3.3860786 L9.00023581,3.3860786 Z M7.5001965,16.8861179 C7.5001965,16.0557671 6.8292504,15.3860786 6.00078602,15.3860786 C5.17169282,15.3860786 4.50074672,16.0567103 4.50074672,16.8861179 C4.50074672,17.7145823 5.17169282,18.3861572 6.00078602,18.3861572 C6.82893599,18.3858428 7.5001965,17.7139535 7.5001965,16.8861179 L7.5001965,16.8861179 Z M19.4998821,16.8861179 C19.4998821,16.0557671 18.8292504,15.3860786 17.9998428,15.3860786 C17.1704352,15.3860786 16.4998035,16.0567103 16.4998035,16.8861179 C16.4998035,17.7145823 17.1713784,18.3861572 17.9998428,18.3861572 C18.8295648,18.3858428 19.4998821,17.7139535 19.4998821,16.8861179 L19.4998821,16.8861179 Z M19.4998821,4.8858035 L4.5001179,4.8858035 L4.5001179,13.8857249 L19.4998821,13.8857249 L19.4998821,4.8858035 L19.4998821,4.8858035 L19.4998821,4.8858035 Z" id="Shape"></path>
            </g>
        </g>
    </g>
</svg>